{"title":"Britney Spears - Perfume 720p x264 AAC E-Subs [GWC].mp4","uid":9333964,"size":36451111,"categoryP":"video","categoryS":"music_videos","magnet":"?xt=urn:btih:e00c05b0d3c856725a357126cb48b516acfc8a5d&amp;dn=Britney+Spears+-+Perfume+720p+x264+AAC+E-Subs+%5BGWC%5D.mp4&amp;tr=udp%3A%2F%2Ftracker.openbittorrent.com%3A80&amp;tr=udp%3A%2F%2Fopen.demonii.com%3A1337&amp;tr=udp%3A%2F%2Ftracker.coppersurfer.tk%3A6969&amp;tr=udp%3A%2F%2Fexodus.desync.com%3A6969","seeders":0,"leechers":0,"uploader":"canc232","files":1,"time":1386820517,"description":"Britney Spears - Perfume 720p x264 AAC E-Subs [GWC]\n\n\nCOVER : &lt;a href=&quot;\nhttp://s20.postimg.org/u6jyk51j1/SDFDS.jpg&quot; rel=&quot;nofollow&quot; target=&quot;_NEW&quot;&gt;\nhttp://s20.postimg.org/u6jyk51j1/SDFDS.jpg&lt;/a&gt;\n\nBritney Spears' vulnerable mid-tempo love ballad &quot;Perfume&quot; finds the pop superstar in a dimly lit, fragrance-heavy love triangle.\nBritney Spears tries to mark her man with one of her signature scents but it looks like she's having a hard time yanking him away from the other woman.\n\nTHUMBNAIL IMAGE : &lt;a href=&quot;\nhttp://img819.imageshack.us/img819/8650/aczw.jpg&quot; rel=&quot;nofollow&quot; target=&quot;_NEW&quot;&gt;\nhttp://img819.imageshack.us/img819/8650/aczw.jpg&lt;/a&gt;\n\n\nMEDIA INFO :\nGeneral\nFormat : MPEG-4\nFormat profile : Base Media\nFile size : 34.8 MiB\nDuration : 4mn 23s\nOverall bit rate mode : Variable\nOverall bit rate : 1 106 Kbps\n\nVideo\nFormat : AVC\nFormat profile : &lt;a class=&quot;__cf_email__&quot; href=&quot;/cdn-cgi/l/email-protection&quot; data-cfemail=&quot;f1b9989699b1bdc2dfc0&quot;&gt;[email&amp;#160;protected]&lt;/a&gt;&lt;script data-cfhash='f9e31' type=&quot;text/javascript&quot;&gt;\n/* &lt;![CDATA[ */!function(){try{var t=&quot;currentScript&quot;in document?document.currentScript:function(){for(var t=document.getElementsByTagName(&quot;script&quot;),e=t.length;e--;)if(t[e].getAttribute(&quot;data-cfhash&quot;))return t[e]}();if(t&amp;&amp;t.previousSibling){var e,r,n,i,c=t.previousSibling,a=c.getAttribute(&quot;data-cfemail&quot;);if(a){for(e=&quot;&quot;,r=parseInt(a.substr(0,2),16),n=2;a.length-n;n+=2)i=parseInt(a.substr(n,2),16)^r,e+=String.fromCharCode(i);e=document.createTextNode(e),c.parentNode.replaceChild(e,c)}t.parentNode.removeChild(t);}}catch(u){}}()/* ]]&gt; */&lt;/script&gt;\nFormat settings, CABAC : Yes\nDuration : 4mn 23s\nSource duration : 4mn 23s\nBit rate : 1 018 Kbps\nWidth : 1 280 pixels\nHeight : 720 pixels\nDisplay aspect ratio : 16:9\nFrame rate : 23.976 fps\nStream size : 32.0 MiB (92%)\nTitle : Britney Spears - Perfume 720p x264 AAC E-Subs [GWC]\n\nAudio\nFormat : AAC\nFormat profile : LC\nDuration : 4mn 23s\nBit rate mode : Variable\nChannel(s) : 2 channels\nSampling rate : 48.0 KHz\nStream size : 2.70 MiB\nLanguage : English\n\nText\nFormat : Timed Text\nDuration : 4mn 23s\nBit rate mode : Variable\nStream size : 2.83 KiB (0%)\nTitle : English Subtitle by [GWC]\nLanguage : English","torrent":{"xt":"urn:btih:e00c05b0d3c856725a357126cb48b516acfc8a5d","amp;dn":"Britney+Spears+-+Perfume+720p+x264+AAC+E-Subs+%5BGWC%5D.mp4","amp;tr":["udp%3A%2F%2Ftracker.openbittorrent.com%3A80","udp%3A%2F%2Fopen.demonii.com%3A1337","udp%3A%2F%2Ftracker.coppersurfer.tk%3A6969","udp%3A%2F%2Fexodus.desync.com%3A6969"],"infoHash":"e00c05b0d3c856725a357126cb48b516acfc8a5d","infoHashBuffer":{"type":"Buffer","data":[224,12,5,176,211,200,86,114,90,53,113,38,203,72,181,22,172,252,138,93]},"announce":[],"urlList":[]}}